<svg xml:space="preserve" style="enable-background:new 0 0 1000 1000;" viewBox="0 0 1000 1000" y="0px" x="0px" xmlns:xlink="http://www.w3.org/1999/xlink" xmlns="http://www.w3.org/2000/svg" id="图层_1" version="1.1">
<style type="text/css">
	.st0{fill:#FDDCDC;stroke:#FD9F9F;stroke-width:12.134;stroke-linecap:round;stroke-linejoin:round;stroke-miterlimit:10;}
	.st1{fill:#FDC8C8;stroke:#FD9292;stroke-width:12.134;stroke-linecap:round;stroke-linejoin:round;stroke-miterlimit:10;}
	.st2{fill:#FDF566;stroke:#FDA76E;stroke-width:12.134;stroke-linecap:round;stroke-linejoin:round;stroke-miterlimit:10;}
	.st3{fill:#FD8DC5;}
	.st4{fill:#53639C;stroke:#233760;stroke-width:12.134;stroke-linecap:round;stroke-linejoin:round;stroke-miterlimit:10;}
	.st5{fill:#FD6487;}
	.st6{fill:none;stroke:#2AE9FD;stroke-width:12.134;stroke-linecap:round;stroke-linejoin:round;stroke-miterlimit:10;}
	
		.st7{opacity:0.83;fill:#FFFFFF;stroke:#2AE9FD;stroke-width:12.134;stroke-linecap:round;stroke-linejoin:round;stroke-miterlimit:10;}
	.st8{fill:#53639C;}
	.st9{fill:#233760;}
	.st10{fill:#FDDCDC;}
	.st11{fill:#FD9F9F;}
	.st12{fill:#FDC8C8;}
	.st13{fill:#FD9595;}
	.st14{fill:#FFFFFF;}
	.st15{fill:#FD92C5;}
	.st16{fill:#FD5FA3;}
	.st17{fill:#FD276A;}
	.st18{fill:#E3875A;}
	.st19{fill:#8A4B3B;}
	.st20{fill:#AC7574;}
	.st21{fill:#5B3D37;}
	.st22{fill:#C9F1FD;}
	.st23{fill:#65B3FD;}
	.st24{fill:#5FCCFD;}
	.st25{fill:#FD366B;}
	.st26{fill:#3F3F3F;}
	.st27{fill:#BFFDCE;}
	.st28{fill:#57CF87;}
	.st29{fill:#E83475;}
	.st30{fill:#FD8DC7;}
	.st31{fill:#FD5F9A;}
	.st32{fill:#95FDB8;}
	.st33{fill:#39B069;}
	.st34{fill:#3A3A3A;}
	.st35{fill:#53639C;stroke:#FD366B;stroke-width:35.7123;stroke-miterlimit:10;}
	.st36{fill:#FD667F;stroke:#FD366B;stroke-width:35.7123;stroke-linecap:round;stroke-linejoin:round;stroke-miterlimit:10;}
	.st37{fill:none;stroke:#FD366B;stroke-width:35.7123;stroke-linecap:round;stroke-linejoin:round;stroke-miterlimit:10;}
	.st38{fill:#FFFFFF;stroke:#3A3A3A;stroke-width:35.7123;stroke-miterlimit:10;}
	.st39{fill:#FCDF64;}
	.st40{fill:#545454;}
	.st41{fill:#FDF566;}
	.st42{fill:#FDA76E;}
	.st43{fill:#FD5758;}
	.st44{fill:#08C247;}
	.st45{fill:#FD7C4B;}
	.st46{fill:#FDEB83;}
	.st47{fill:#25E362;}
	.st48{fill:#FD3D4B;}
	.st49{fill:#FD9798;}
	.st50{fill:#43B1FD;}
	.st51{fill:#FD5598;}
	.st52{fill:#FA3D80;}
	.st53{fill:#FFFD5F;}
	.st54{fill:#FD69A4;}
	.st55{fill:#84D1FD;stroke:#62BCFD;stroke-width:7.322;stroke-linecap:round;stroke-linejoin:round;stroke-miterlimit:10;}
	.st56{fill:none;stroke:#3A3A3A;stroke-width:7.322;stroke-linecap:round;stroke-linejoin:round;stroke-miterlimit:10;}
	.st57{fill:#FD8DC7;stroke:#FD5F9A;stroke-width:7.322;stroke-linecap:round;stroke-linejoin:round;stroke-miterlimit:10;}
	.st58{fill:#FFFFFF;stroke:#84D1FD;stroke-width:7.322;stroke-linecap:round;stroke-linejoin:round;stroke-miterlimit:10;}
	.st59{fill:#B9EBFD;stroke:#84D1FD;stroke-width:7.322;stroke-linecap:round;stroke-linejoin:round;stroke-miterlimit:10;}
	.st60{fill:#BFF3FF;stroke:#00D0FF;stroke-width:13.0018;stroke-linecap:round;stroke-linejoin:round;stroke-miterlimit:10;}
	.st61{fill:#00D0FF;stroke:#BFF3FF;stroke-width:13.0018;stroke-linecap:round;stroke-linejoin:round;stroke-miterlimit:10;}
</style>
<g>
	<circle r="348.43" cy="533.58" cx="496.44" class="st35"></circle>
	<path d="M845.67,534.37c0,119.89-57.42,226.38-146.28,293.43c-22.85,17.26-47.78,31.9-74.36,43.49
		c-44.96,19.61-94.59,30.48-146.75,30.48c-30.13,0-59.43-3.63-87.45-10.48c-23.36-5.7-45.81-13.62-67.16-23.55l54.72-105.32
		l69.15-133.07l33.28-64.03l77.26-148.68L303.19,567.51l-122.35,72.42l-45.37,26.85c-15.88-41.07-24.59-85.73-24.59-132.4
		c0-202.91,164.48-367.39,367.39-367.39S845.67,331.46,845.67,534.37z" class="st36"></path>
	<g>
		<circle r="71.9" cy="567.55" cx="724.78" class="st8"></circle>
		<path d="M480.82,565.33c11.14-7.1,24.37-11.2,38.54-11.2c39.71,0,71.9,32.19,71.9,71.9s-32.19,71.9-71.9,71.9
			c-38.59,0-70.08-30.4-71.82-68.56L480.82,565.33z" class="st8"></path>
		<path d="M699.39,827.79c3.63-8.6,5.64-18.05,5.64-27.95c0-39.71-32.19-71.9-71.9-71.9s-71.9,32.19-71.9,71.9
			c0,36.96,27.89,67.41,63.79,71.44L699.39,827.79z" class="st8"></path>
		<circle r="71.9" cy="384.25" cx="250.72" class="st8"></circle>
		<circle r="71.9" cy="384.25" cx="448.25" class="st8"></circle>
	</g>
	<path d="M845.67,534.37c0,119.89-57.42,226.38-146.28,293.43c-22.85,17.26-47.78,31.9-74.36,43.49
		c-44.96,19.61-94.59,30.48-146.75,30.48c-30.13,0-59.43-3.63-87.45-10.48c-23.36-5.7-45.81-13.62-67.16-23.55l54.72-105.32
		l69.15-133.07l33.28-64.03l77.26-148.68L303.19,567.51l-122.35,72.42l-45.37,26.85c-15.88-41.07-24.59-85.73-24.59-132.4
		c0-202.91,164.48-367.39,367.39-367.39S845.67,331.46,845.67,534.37z" class="st37"></path>
	<circle r="109.03" cy="207.27" cx="606.27" class="st38"></circle>
	<circle r="109.03" cy="360.55" cx="780.09" class="st38"></circle>
	<circle r="47.41" cy="207.27" cx="606.27" class="st34"></circle>
	<circle r="47.41" cy="360.55" cx="780.09" class="st34"></circle>
</g>
</svg>
