<svg xml:space="preserve" style="enable-background:new 0 0 1000 1000;" viewBox="0 0 1000 1000" y="0px" x="0px" xmlns:xlink="http://www.w3.org/1999/xlink" xmlns="http://www.w3.org/2000/svg" id="图层_1" version="1.1">
<style type="text/css">
	.st0{fill:#FDDCDC;stroke:#FD9F9F;stroke-width:12.134;stroke-linecap:round;stroke-linejoin:round;stroke-miterlimit:10;}
	.st1{fill:#FDC8C8;stroke:#FD9292;stroke-width:12.134;stroke-linecap:round;stroke-linejoin:round;stroke-miterlimit:10;}
	.st2{fill:#FDF566;stroke:#FDA76E;stroke-width:12.134;stroke-linecap:round;stroke-linejoin:round;stroke-miterlimit:10;}
	.st3{fill:#FD8DC5;}
	.st4{fill:#53639C;stroke:#233760;stroke-width:12.134;stroke-linecap:round;stroke-linejoin:round;stroke-miterlimit:10;}
	.st5{fill:#FD6487;}
	.st6{fill:none;stroke:#2AE9FD;stroke-width:12.134;stroke-linecap:round;stroke-linejoin:round;stroke-miterlimit:10;}
	
		.st7{opacity:0.83;fill:#FFFFFF;stroke:#2AE9FD;stroke-width:12.134;stroke-linecap:round;stroke-linejoin:round;stroke-miterlimit:10;}
	.st8{fill:#53639C;}
	.st9{fill:#233760;}
	.st10{fill:#FDDCDC;}
	.st11{fill:#FD9F9F;}
	.st12{fill:#FDC8C8;}
	.st13{fill:#FD9595;}
	.st14{fill:#FFFFFF;}
	.st15{fill:#FD92C5;}
	.st16{fill:#FD5FA3;}
	.st17{fill:#FD276A;}
	.st18{fill:#E3875A;}
	.st19{fill:#8A4B3B;}
	.st20{fill:#AC7574;}
	.st21{fill:#5B3D37;}
	.st22{fill:#C9F1FD;}
	.st23{fill:#65B3FD;}
	.st24{fill:#5FCCFD;}
	.st25{fill:#FD366B;}
	.st26{fill:#3F3F3F;}
	.st27{fill:#BFFDCE;}
	.st28{fill:#57CF87;}
	.st29{fill:#E83475;}
	.st30{fill:#FD8DC7;}
	.st31{fill:#FD5F9A;}
	.st32{fill:#95FDB8;}
	.st33{fill:#39B069;}
	.st34{fill:#3A3A3A;}
	.st35{fill:#53639C;stroke:#FD366B;stroke-width:6.3909;stroke-miterlimit:10;}
	.st36{fill:#FD667F;stroke:#FD366B;stroke-width:6.3909;stroke-linecap:round;stroke-linejoin:round;stroke-miterlimit:10;}
	.st37{fill:none;stroke:#FD366B;stroke-width:6.3909;stroke-linecap:round;stroke-linejoin:round;stroke-miterlimit:10;}
	.st38{fill:#FFFFFF;stroke:#3A3A3A;stroke-width:6.3909;stroke-miterlimit:10;}
	.st39{fill:#FCDF64;}
	.st40{fill:#545454;}
	.st41{fill:#FDF566;}
	.st42{fill:#FDA76E;}
	.st43{fill:#FD5758;}
	.st44{fill:#08C247;}
	.st45{fill:#FD7C4B;}
	.st46{fill:#FDEB83;}
	.st47{fill:#25E362;}
	.st48{fill:#FD3D4B;}
	.st49{fill:#FD9798;}
	.st50{fill:#43B1FD;}
	.st51{fill:#FD5598;}
	.st52{fill:#FA3D80;}
	.st53{fill:#FFFD5F;}
	.st54{fill:#FD69A4;}
	.st55{fill:#84D1FD;stroke:#62BCFD;stroke-width:7.322;stroke-linecap:round;stroke-linejoin:round;stroke-miterlimit:10;}
	.st56{fill:none;stroke:#3A3A3A;stroke-width:7.322;stroke-linecap:round;stroke-linejoin:round;stroke-miterlimit:10;}
	.st57{fill:#FD8DC7;stroke:#FD5F9A;stroke-width:7.322;stroke-linecap:round;stroke-linejoin:round;stroke-miterlimit:10;}
	.st58{fill:#FFFFFF;stroke:#84D1FD;stroke-width:7.322;stroke-linecap:round;stroke-linejoin:round;stroke-miterlimit:10;}
	.st59{fill:#B9EBFD;stroke:#84D1FD;stroke-width:7.322;stroke-linecap:round;stroke-linejoin:round;stroke-miterlimit:10;}
	.st60{fill:#BFF3FF;stroke:#00D0FF;stroke-width:13.0018;stroke-linecap:round;stroke-linejoin:round;stroke-miterlimit:10;}
	.st61{fill:#00D0FF;stroke:#BFF3FF;stroke-width:13.0018;stroke-linecap:round;stroke-linejoin:round;stroke-miterlimit:10;}
</style>
<g>
	<g>
		<g>
			<path d="M761.88,500c-0.01,7.08-0.28,14.15-0.83,21.21c-0.27,3.42-0.61,6.84-1.01,10.25
				c-0.1,0.85-0.21,1.7-0.31,2.55c-0.29,2.37,0.51-3.68,0.06-0.42c-0.24,1.69-0.49,3.37-0.76,5.05c-2.16,13.51-5.37,26.85-9.6,39.86
				c-2.05,6.3-4.33,12.53-6.85,18.66c-0.18,0.44-0.36,0.87-0.54,1.31c-0.56,1.39,0.8-1.91,0.71-1.68c-0.3,0.77-0.65,1.52-0.98,2.27
				c-0.7,1.62-1.43,3.23-2.16,4.83c-1.37,2.99-2.8,5.95-4.28,8.88c-5.95,11.77-12.79,23.1-20.42,33.86
				c-1.94,2.74-3.87,5.55-6.01,8.14c-0.16,0.19,2.02-2.58,1.1-1.42c-0.22,0.27-0.43,0.55-0.64,0.82c-0.5,0.64-1.01,1.28-1.52,1.91
				c-1.09,1.36-2.19,2.71-3.31,4.05c-4.16,5-8.5,9.84-13.02,14.52c-4.59,4.76-9.36,9.36-14.3,13.76c-2.42,2.17-4.89,4.29-7.39,6.37
				c-1.25,1.04-2.51,2.07-3.78,3.08c-0.64,0.51-1.27,1.01-1.91,1.52c-0.27,0.22-0.55,0.43-0.82,0.64c-1.22,0.97,2.95-2.24,0.87-0.68
				c-10.52,7.95-21.51,15.21-33.06,21.58c-5.85,3.23-11.83,6.23-17.91,9.01c-1.39,0.64-2.79,1.26-4.19,1.87
				c-0.75,0.33-1.51,0.68-2.27,0.98c-0.23,0.09,3.07-1.27,1.68-0.71c-0.55,0.22-1.09,0.45-1.63,0.67c-3.06,1.25-6.15,2.45-9.26,3.58
				c-12.67,4.63-25.7,8.29-38.94,10.93c-3.44,0.69-6.9,1.31-10.36,1.86c-1.56,0.25-3.12,0.48-4.69,0.7
				c-3.25,0.46,2.79-0.34,0.42-0.06c-0.97,0.12-1.94,0.24-2.91,0.36c-6.97,0.81-13.98,1.35-21,1.61
				c-13.99,0.52-28.02-0.04-41.93-1.7c-0.85-0.1-1.7-0.21-2.54-0.32c-1.53-0.19,2.13,0.28,1.87,0.25c-0.48-0.06-0.97-0.13-1.45-0.2
				c-1.68-0.24-3.37-0.49-5.05-0.76c-3.34-0.54-6.68-1.14-10-1.81c-6.7-1.35-13.35-2.96-19.93-4.82
				c-6.52-1.85-12.96-3.94-19.32-6.29c-3.1-1.14-6.19-2.35-9.24-3.61c-0.43-0.18-0.88-0.34-1.31-0.54
				c-0.23-0.11,3.05,1.31,1.68,0.71c-0.75-0.33-1.52-0.65-2.27-0.98c-1.51-0.66-3.01-1.33-4.51-2.02
				c-12.12-5.57-23.81-12.06-34.95-19.39c-5.45-3.59-10.69-7.45-15.93-11.33c3.9,2.89-0.63-0.51-1.58-1.28
				c-1.36-1.09-2.71-2.19-4.05-3.31c-2.5-2.08-4.95-4.21-7.37-6.39c-9.76-8.77-18.87-18.25-27.24-28.36
				c-1.04-1.25-2.06-2.52-3.08-3.79c-0.51-0.64-1.01-1.28-1.51-1.92c-1.8-2.28,1.54,2.04,0.25,0.32c-2.03-2.69-4.04-5.4-5.99-8.16
				c-3.83-5.43-7.46-11-10.87-16.7c-3.37-5.62-6.52-11.37-9.46-17.22c-1.48-2.94-2.9-5.9-4.26-8.89c-0.68-1.5-1.35-3-2.01-4.51
				c-0.23-0.54-1.43-3.35-0.41-0.94c1.02,2.41-0.32-0.78-0.52-1.29c-5.07-12.44-9.18-25.27-12.3-38.34
				c-1.59-6.69-2.93-13.45-4-20.24c-0.25-1.56-0.47-3.13-0.69-4.69c-0.34-2.4,0.44,3.41,0.06,0.42c-0.12-0.97-0.24-1.94-0.35-2.91
				c-0.39-3.41-0.72-6.84-0.98-10.26c-1.07-13.99-1.04-28.06,0.09-42.05c0.28-3.54,0.64-7.08,1.07-10.61
				c0.09-0.72,0.45-1.85,0.32-2.54c-0.04-0.2-0.46,3.35-0.25,1.87c0.05-0.36,0.1-0.72,0.15-1.09c0.26-1.8,0.53-3.61,0.82-5.41
				c1.1-6.78,2.47-13.52,4.1-20.2c3.19-13.06,7.43-25.8,12.5-38.25c1.1-2.7-1.09,2.52-0.16,0.38c0.28-0.65,0.56-1.3,0.84-1.95
				c0.71-1.62,1.43-3.23,2.17-4.83c1.43-3.09,2.91-6.15,4.45-9.19c2.97-5.84,6.16-11.56,9.55-17.16c3.44-5.68,7.1-11.23,10.96-16.64
				c0.88-1.23,1.77-2.46,2.67-3.67c0.48-0.65,0.97-1.31,1.46-1.96c0.32-0.43,2.4-3.13,0.82-1.09c-1.51,1.95,0.24-0.3,0.63-0.8
				c0.5-0.64,1.01-1.27,1.52-1.91c1.09-1.36,2.2-2.71,3.32-4.04c8.42-10.06,17.58-19.5,27.38-28.22c2.43-2.16,4.9-4.28,7.41-6.35
				c1.25-1.04,2.52-2.06,3.79-3.07c0.55-0.43,1.09-0.86,1.64-1.3c2.39-1.89-2.42,1.83-0.04,0.03c5.29-4,10.7-7.84,16.27-11.46
				c11.09-7.21,22.71-13.59,34.75-19.06c1.5-0.68,3.01-1.35,4.52-2c0.96-0.42,3.76-1.49-0.38,0.15c0.88-0.35,1.74-0.72,2.62-1.08
				c3.07-1.24,6.16-2.43,9.27-3.56c6.26-2.27,12.6-4.3,19.02-6.09c6.59-1.84,13.25-3.42,19.96-4.74c3.33-0.65,6.66-1.24,10.01-1.77
				c1.68-0.26,3.37-0.5,5.05-0.74c1.48-0.21-2.07,0.21-1.87,0.25c0.34,0.06,1.06-0.14,1.45-0.19c0.97-0.12,1.94-0.24,2.91-0.35
				c13.92-1.58,27.96-2.07,41.96-1.47c7.01,0.3,14,0.88,20.97,1.73c0.73,0.09,1.45,0.19,2.18,0.28c-4.59-0.55-1.49-0.2-0.42-0.05
				c1.8,0.26,3.61,0.53,5.4,0.83c3.34,0.55,6.67,1.16,9.99,1.84c13.33,2.72,26.45,6.47,39.2,11.21c3.1,1.15,6.17,2.38,9.23,3.63
				c2.13,0.87-3.29-1.42-0.38-0.16c0.65,0.28,1.3,0.56,1.94,0.84c1.62,0.71,3.22,1.43,4.82,2.17c6.06,2.81,12.02,5.84,17.85,9.1
				c5.71,3.19,11.3,6.58,16.75,10.18c2.82,1.86,5.6,3.77,8.35,5.74c1.23,0.88,2.45,1.77,3.67,2.67c0.65,0.48,1.31,0.97,1.96,1.46
				c0.37,0.28,0.74,0.56,1.11,0.84c1.48,1.12-0.9-0.71-1.15-0.89c10.54,7.65,20.22,16.95,29.2,26.34
				c4.58,4.78,8.97,9.73,13.18,14.84c1.03,1.26,2.06,2.52,3.07,3.8c0.43,0.55,0.86,1.1,1.29,1.64c0.55,0.7,1.49,2.06-0.89-1.15
				c0.28,0.37,0.57,0.74,0.85,1.11c1.97,2.59,3.89,5.22,5.77,7.89c7.66,10.89,14.51,22.35,20.45,34.26
				c1.47,2.94,2.88,5.91,4.24,8.91c0.68,1.5,1.35,3.01,2,4.52c0.14,0.32,0.27,0.65,0.42,0.97c0.61,1.36-0.82-1.91-0.71-1.68
				c0.4,0.85,0.72,1.75,1.08,2.62c2.54,6.25,4.83,12.61,6.89,19.04c4.12,12.93,7.24,26.17,9.33,39.58c0.26,1.68,0.55,3.37,0.74,5.06
				c0.03,0.26-0.44-3.4-0.25-1.87c0.06,0.48,0.12,0.97,0.18,1.45c0.1,0.85,0.21,1.7,0.3,2.55c0.37,3.29,0.69,6.59,0.94,9.9
				C761.63,486.34,761.87,493.17,761.88,500c0.01,7.25,6.37,14.19,13.85,13.85c7.5-0.34,13.87-6.09,13.85-13.85
				c-0.04-29.02-4.48-58.25-13.44-85.86c-8.66-26.67-21.26-52.18-37.52-75.04c-16.84-23.66-36.87-44.3-59.91-61.96
				c-22.28-17.08-47.14-30.4-73.48-40.07c-27.12-9.95-55.95-15.38-84.8-16.5c-29.14-1.13-58.71,2.38-86.76,10.33
				c-27.01,7.65-53.07,19.48-76.54,34.91c-23.3,15.32-44.49,34-62.22,55.54c-18.51,22.48-33.24,47.2-44.29,74.13
				c-10.94,26.65-17.26,54.98-19.49,83.68c-2.27,29.21,0.27,58.95,7.17,87.41c6.64,27.36,17.64,53.9,32.23,77.97
				c14.44,23.82,32.51,45.68,53.35,64.16c20.87,18.51,44.37,34.11,69.8,45.6c27.17,12.27,55.56,20.07,85.17,23.52
				c29.24,3.41,58.98,1.85,87.81-3.99c27.71-5.61,54.65-15.75,79.35-29.49c24.34-13.55,46.81-30.95,66.05-51.11
				c19.19-20.11,35.59-43.16,47.97-68.06c12.68-25.49,21.68-52.81,25.99-80.98c2.24-14.65,3.54-29.38,3.56-44.2
				c0.01-7.25-6.38-14.19-13.85-13.85C768.22,486.48,761.89,492.23,761.88,500z" class="st41"></path>
		</g>
	</g>
	<g>
		<circle r="193.61" cy="499.77" cx="509.73" class="st41"></circle>
		<g>
			<path d="M699.89,499.77c-0.03,20.02-3.12,39.9-9.31,58.94c-5.93,18.27-14.71,35.56-25.82,51.22
				c-10.95,15.43-24.31,29.29-39.33,40.79c-15.19,11.63-32.16,21.03-50.13,27.61c-18.67,6.83-38.34,10.71-58.2,11.45
				c-20.01,0.75-40.06-1.59-59.33-7.05c-18.62-5.28-36.34-13.43-52.52-24.06c-15.88-10.45-30.14-23.31-42.26-37.95
				c-12.13-14.65-22.12-31.27-29.3-48.89c-7.41-18.2-12.04-37.55-13.54-57.15c-1.53-20.13,0.04-40.45,4.82-60.06
				c4.59-18.78,12.03-36.77,22.05-53.31c9.91-16.35,22.27-31.13,36.56-43.83c14.26-12.68,30.46-23.15,47.83-31.05
				c17.72-8.06,36.86-13.36,56.2-15.56c20-2.27,40.37-1.49,60.09,2.53c19.09,3.89,37.52,10.69,54.53,20.19
				c16.64,9.29,31.8,21.04,44.97,34.8c13.24,13.84,24.34,29.65,32.89,46.79c8.7,17.43,14.6,36.22,17.6,55.46
				C699.19,480.27,699.87,490.03,699.89,499.77c0.01,4.46,6.93,4.46,6.93,0c-0.03-20.59-3.19-41.2-9.56-60.79
				c-6.14-18.9-15.14-36.89-26.66-53.08c-11.56-16.24-25.46-30.63-41.27-42.76c-15.75-12.09-33.31-21.68-51.95-28.53
				c-19.22-7.05-39.57-10.99-60.02-11.78c-20.67-0.8-41.54,1.65-61.44,7.29c-19.16,5.43-37.53,13.82-54.17,24.76
				c-16.51,10.86-31.42,24.17-43.99,39.42c-12.7,15.42-22.98,32.6-30.56,51.08c-7.74,18.85-12.38,38.89-13.96,59.2
				c-1.61,20.72,0.09,41.73,4.99,61.92c4.71,19.41,12.46,38.14,22.81,55.22c10.24,16.9,23.05,32.29,37.83,45.4
				c14.78,13.11,31.5,24.04,49.51,32.18c18.63,8.42,38.39,13.86,58.7,16.23c20.7,2.42,41.78,1.47,62.21-2.67
				c19.65-3.98,38.7-11.07,56.22-20.82c17.27-9.61,33.13-21.89,46.77-36.19c13.61-14.27,25.13-30.59,33.91-48.24
				c8.98-18.06,15.21-37.47,18.26-57.41c1.54-10.08,2.35-20.24,2.36-30.44C706.82,495.31,699.89,495.3,699.89,499.77z" class="st42"></path>
		</g>
	</g>
	<g>
		<g>
			<path d="M871.01,500c-0.01,10.25-0.4,20.49-1.21,30.71c-0.39,4.96-0.88,9.91-1.46,14.85
				c-0.15,1.23-0.3,2.46-0.45,3.69c-0.04,0.34-0.27,2.14-0.03,0.26c0.25-2-0.04,0.29-0.11,0.78c-0.34,2.44-0.71,4.88-1.1,7.31
				c-3.13,19.56-7.78,38.88-13.9,57.72c-2.97,9.13-6.27,18.15-9.92,27.02c-0.52,1.26-1.39,3.5-0.38,0.94
				c-0.44,1.11-0.94,2.2-1.42,3.29c-1.02,2.34-2.06,4.67-3.13,7c-1.99,4.32-4.06,8.61-6.2,12.86
				c-8.62,17.05-18.52,33.45-29.57,49.03c-2.83,3.99-5.75,7.89-8.7,11.79c1.42-1.88,0.54-0.69-0.31,0.39
				c-0.73,0.93-1.46,1.85-2.2,2.77c-1.58,1.97-3.17,3.93-4.79,5.87c-6.02,7.24-12.31,14.25-18.85,21.03
				c-6.65,6.9-13.56,13.55-20.7,19.93c-3.51,3.14-7.08,6.21-10.7,9.22c-1.81,1.5-3.64,2.99-5.48,4.46c-0.92,0.74-1.84,1.47-2.77,2.2
				c-0.4,0.31-0.8,0.62-1.19,0.93c-1.52,1.21,2.66-2.02,0-0.01c-15.21,11.53-31.16,22.03-47.88,31.25
				c-8.48,4.67-17.13,9.03-25.93,13.04c-2.01,0.92-4.04,1.82-6.07,2.71c-1.09,0.48-2.18,0.98-3.29,1.42
				c2.85-1.13-0.26,0.1-1.42,0.57c-4.43,1.81-8.9,3.54-13.4,5.19c-18.35,6.71-37.22,12.01-56.38,15.83c-4.98,0.99-9.99,1.89-15,2.69
				c-2.26,0.36-4.52,0.7-6.79,1.01c-0.49,0.07-2.78,0.36-0.78,0.11c1.88-0.24,0.08-0.01-0.26,0.03c-1.4,0.17-2.81,0.35-4.21,0.51
				c-10.1,1.18-20.25,1.95-30.41,2.33c-20.26,0.76-40.58-0.05-60.71-2.46c-1.23-0.15-2.46-0.31-3.68-0.46
				c-1.62-0.2,0.99,0.14,1.06,0.15c-0.7-0.08-1.4-0.19-2.1-0.29c-2.44-0.35-4.88-0.72-7.31-1.11c-4.84-0.78-9.67-1.66-14.48-2.62
				c-9.71-1.95-19.34-4.28-28.86-6.98c-9.44-2.67-18.77-5.71-27.97-9.1c-4.49-1.66-8.96-3.4-13.39-5.22
				c-0.63-0.26-1.28-0.5-1.89-0.79c0.06,0.03,2.39,1.04,0.95,0.4c-1.09-0.48-2.19-0.94-3.29-1.42c-2.18-0.96-4.36-1.93-6.53-2.93
				c-17.55-8.07-34.48-17.46-50.62-28.07c-7.89-5.19-15.54-10.71-23.07-16.41c2.78,2.1-0.15-0.13-0.78-0.62
				c-0.93-0.73-1.85-1.46-2.77-2.2c-1.97-1.58-3.92-3.18-5.86-4.79c-3.61-3.02-7.17-6.1-10.68-9.25
				c-14.13-12.7-27.33-26.43-39.44-41.07c-1.5-1.81-2.99-3.64-4.46-5.48c-0.73-0.92-1.46-1.85-2.19-2.77
				c-0.31-0.4-0.62-0.8-0.93-1.19c0.59,0.75,1.33,1.74,0.32,0.4c-2.95-3.89-5.86-7.82-8.67-11.81c-5.55-7.86-10.8-15.93-15.74-24.18
				c-4.87-8.14-9.45-16.46-13.7-24.94c-2.14-4.25-4.19-8.55-6.17-12.88c-0.99-2.17-1.96-4.35-2.91-6.54
				c-0.22-0.5-1.67-3.93-0.91-2.11c0.71,1.69,0.03,0.07-0.09-0.23c-0.32-0.79-0.65-1.58-0.97-2.37
				c-7.34-18.02-13.3-36.6-17.81-55.53c-2.31-9.69-4.24-19.47-5.79-29.31c-0.36-2.26-0.68-4.53-1.01-6.79
				c-0.31-2.21,0.29,0.4,0.07,0.53c0.07-0.05-0.19-1.44-0.2-1.58c-0.18-1.4-0.35-2.81-0.51-4.22c-0.57-4.94-1.04-9.9-1.42-14.86
				c-1.54-20.26-1.5-40.64,0.12-60.89c0.41-5.13,0.93-10.26,1.54-15.37c0.05-0.39,0.63-3.58,0.46-3.68
				c0.02,0.01-0.38,2.71-0.14,1.06c0.07-0.52,0.14-1.05,0.22-1.57c0.37-2.61,0.77-5.22,1.19-7.83c1.6-9.82,3.58-19.59,5.94-29.25
				c4.62-18.92,10.76-37.37,18.1-55.39c0.19-0.47,0.37-0.96,0.59-1.42c-1.33,2.85-0.48,1.12-0.2,0.48c0.41-0.94,0.81-1.88,1.22-2.82
				c1.02-2.34,2.07-4.67,3.14-6.99c2.06-4.48,4.22-8.91,6.45-13.3c4.3-8.45,8.92-16.74,13.83-24.86
				c4.99-8.23,10.28-16.27,15.87-24.09c1.27-1.78,2.56-3.56,3.86-5.32c0.7-0.95,1.41-1.89,2.12-2.83c0.41-0.54,0.81-1.07,1.22-1.61
				c0.21-0.28,1.61-2.1,0.45-0.6c-1.09,1.41,0.99-1.26,1.4-1.78c0.73-0.92,1.46-1.85,2.2-2.76c1.58-1.97,3.18-3.92,4.8-5.85
				c12.19-14.57,25.46-28.24,39.65-40.86c3.52-3.13,7.1-6.19,10.73-9.19c1.82-1.5,3.65-2.98,5.49-4.45
				c0.79-0.63,1.58-1.25,2.38-1.88c0.37-0.29,2.11-1.64,0.59-0.47c-1.5,1.15,0.32-0.24,0.6-0.45c7.66-5.8,15.5-11.36,23.56-16.6
				c16.05-10.44,32.89-19.67,50.31-27.6c2.17-0.99,4.35-1.95,6.54-2.9c0.75-0.33,4.12-1.9,0.93-0.41c1.23-0.58,2.53-1.05,3.79-1.56
				c4.44-1.8,8.91-3.52,13.42-5.15c9.06-3.28,18.25-6.23,27.54-8.82c9.54-2.66,19.19-4.95,28.91-6.86c4.82-0.95,9.65-1.8,14.5-2.56
				c2.44-0.38,4.88-0.73,7.32-1.08c1.65-0.23-1.05,0.16-1.06,0.14c0.03,0.06,1.83-0.23,2.1-0.27c1.4-0.18,2.81-0.34,4.22-0.5
				c20.16-2.29,40.49-3,60.76-2.13c10.15,0.44,20.28,1.27,30.36,2.5c0.32,0.04,3.05,0.57,3.16,0.4c-0.14,0.22-2.75-0.38-0.53-0.07
				c0.52,0.07,1.05,0.15,1.57,0.22c2.61,0.37,5.22,0.77,7.82,1.2c4.84,0.8,9.66,1.68,14.46,2.66c19.3,3.93,38.3,9.37,56.77,16.23
				c4.49,1.67,8.94,3.44,13.37,5.26c2.33,0.96-2.31-1.01,0.93,0.4c0.94,0.41,1.88,0.81,2.82,1.22c2.34,1.03,4.67,2.08,6.99,3.15
				c8.78,4.06,17.41,8.46,25.85,13.18c8.26,4.61,16.36,9.53,24.26,14.74c4.08,2.69,8.11,5.46,12.09,8.31
				c1.78,1.27,3.55,2.56,5.31,3.87c0.95,0.7,1.89,1.41,2.83,2.12c0.98,0.74,3.59,2.78,1.21,0.91c14.96,11.75,29.14,24.4,42.29,38.15
				c6.63,6.93,12.99,14.1,19.09,21.49c1.5,1.82,2.98,3.65,4.44,5.5c0.63,0.79,1.25,1.59,1.87,2.38c0.42,0.53,1.58,2.08-0.31-0.41
				c0.41,0.54,0.82,1.07,1.23,1.61c2.85,3.76,5.64,7.56,8.35,11.42c11.09,15.77,21,32.37,29.61,49.62c2.13,4.26,4.17,8.56,6.14,12.9
				c0.98,2.17,1.95,4.35,2.89,6.55c0.55,1.28,1.21,2.62,0.2,0.46c0.58,1.23,1.05,2.53,1.56,3.79c3.67,9.06,7,18.26,9.97,27.57
				c5.97,18.72,10.49,37.9,13.51,57.31c0.38,2.43,0.78,4.87,1.07,7.32c-0.34-2.83-0.05-0.35,0.12,1.05c0.15,1.23,0.3,2.46,0.44,3.69
				c0.54,4.77,1,9.55,1.36,14.33C870.64,480.22,871,490.11,871.01,500c0.01,7.25,6.37,14.19,13.85,13.85
				c7.5-0.34,13.87-6.09,13.85-13.85c-0.06-41.5-6.42-83.19-19.25-122.68c-12.38-38.13-30.46-74.51-53.71-107.18
				c-23.71-33.33-52.08-62.61-84.53-87.49c-31.82-24.4-67.3-43.59-104.92-57.4c-38.76-14.23-79.9-22.06-121.15-23.67
				c-41.67-1.62-83.86,3.37-123.99,14.74c-38.63,10.95-75.8,27.86-109.35,49.92c-33.31,21.9-63.5,48.67-88.84,79.45
				c-26.07,31.65-46.97,66.69-62.54,104.61c-15.62,38.06-24.81,78.53-28,119.53c-3.24,41.77,0.29,84.22,10.17,124.93
				c9.49,39.13,25.18,76.99,46.05,111.43c20.65,34.07,46.48,65.23,76.29,91.66c29.83,26.45,63.47,48.64,99.82,65.06
				c38.26,17.28,78.51,28.35,120.2,33.22c41.78,4.87,84.3,2.79,125.51-5.55c39.63-8.02,78.09-22.42,113.42-42.08
				c34.82-19.38,66.88-44.2,94.39-73.03c27.45-28.76,50.79-61.7,68.49-97.3c18.12-36.44,30.85-75.53,37.01-115.78
				c3.16-20.65,4.91-41.46,4.94-62.36c0.01-7.25-6.38-14.19-13.85-13.85C877.35,486.48,871.02,492.23,871.01,500z" class="st41"></path>
		</g>
	</g>
	<g>
		<circle r="11.08" cy="345.09" cx="539.93"></circle>
	</g>
	<g>
		<circle r="11.08" cy="373.37" cx="598.35"></circle>
	</g>
	<g>
		<circle r="27.13" cy="352.6" cx="480.33" class="st5"></circle>
	</g>
	<g>
		<circle r="27.13" cy="419.49" cx="632.65" class="st5"></circle>
	</g>
	<g>
		<g>
			<path d="M610.78,381.82c-0.83,2.23-1.81,4.36-3.18,6.79c-0.62,1.09-1.28,2.17-1.98,3.21
				c-0.38,0.57-0.77,1.13-1.17,1.68c-0.13,0.18-0.27,0.36-0.4,0.55c-0.25,0.32-0.27,0.36-0.07,0.11c-0.14,0.18-0.28,0.35-0.42,0.53
				c-1.61,2.01-3.36,3.89-5.25,5.64c-0.9,0.83-1.82,1.62-2.77,2.39c0.06-0.05-0.8,0.62-0.43,0.34c0.37-0.28-0.5,0.37-0.44,0.33
				c-0.62,0.46-1.25,0.9-1.9,1.34c-8.29,5.56-17.6,8.38-27.35,8.32c-1.24-0.01-2.48-0.06-3.72-0.16c-0.57-0.04-1.13-0.1-1.69-0.16
				c-0.04,0-1.16-0.14-0.43-0.05c-0.45-0.06-0.91-0.13-1.36-0.21c-2.58-0.43-5.12-1.05-7.6-1.87c-2.75-0.9-4.32-1.56-6.81-2.84
				c-2.34-1.2-4.59-2.59-6.72-4.13c-0.27-0.2-0.55-0.4-0.82-0.61c0.53,0.4-0.35-0.28-0.37-0.29c-0.44-0.35-0.87-0.71-1.3-1.07
				c-1.02-0.87-2-1.78-2.95-2.73c-0.86-0.87-1.7-1.76-2.5-2.69c-0.97-1.12-1.53-1.84-2.14-2.68c-1.46-2-2.78-4.11-3.94-6.31
				c-0.57-1.07-1.08-2.16-1.58-3.27c-0.06-0.14-0.34-0.79-0.11-0.23c-0.13-0.3-0.25-0.61-0.37-0.92c-0.24-0.61-0.47-1.23-0.69-1.86
				c-0.95-2.71-1.67-5.5-2.16-8.33c-0.06-0.33-0.11-0.66-0.16-0.98c-0.02-0.14-0.15-1.1-0.06-0.4c-0.1-0.77-0.18-1.55-0.24-2.32
				c-0.11-1.34-0.16-2.68-0.16-4.02c0-1.47,0.06-2.93,0.18-4.39c0.03-0.34,0.06-0.68,0.1-1.02c0.01-0.12,0.17-1.45,0.08-0.77
				c0.09-0.68,0.2-1.36,0.32-2.03c0.54-2.99,1.35-5.91,2.39-8.77c0.64-1.76-0.72-3.79-2.42-4.26c-1.93-0.53-3.62,0.66-4.26,2.42
				c-7.75,21.24-1.3,46.06,16.02,60.68c8.95,7.56,20.05,12.11,31.73,13.03c10.99,0.86,22.25-1.81,31.76-7.36
				c11.14-6.49,19.52-16.75,24.01-28.79c0.65-1.75-0.73-3.8-2.42-4.26C613.1,378.87,611.44,380.06,610.78,381.82L610.78,381.82z" class="st43"></path>
		</g>
	</g>
</g>
</svg>
