<?xml version="1.0" standalone="no"?><!DOCTYPE svg PUBLIC "-//W3C//DTD SVG 1.1//EN" "http://www.w3.org/Graphics/SVG/1.1/DTD/svg11.dtd"><svg t="1614738067469" class="icon" viewBox="0 0 1024 1024" version="1.1" xmlns="http://www.w3.org/2000/svg" p-id="588" xmlns:xlink="http://www.w3.org/1999/xlink" width="200" height="200"><defs><style type="text/css"></style></defs><path d="M233.008 967.344c-10.272 0-20.176-5.52-25.28-15.12-7.328-13.888-1.968-31.008 12-38.352l279.008-145.824c8.336-4.336 18.24-4.336 26.576 0l227.872 119.088-43.568-252.336c-1.6-9.216 1.472-18.592 8.208-25.104l184.32-178.672-254.736-36.8c-9.264-1.376-17.296-7.184-21.472-15.552L512.016 149.056l-113.952 229.616c-4.16 8.352-12.192 14.16-21.488 15.552l-254.736 36.8 184.336 178.672c6.72 6.512 9.792 15.888 8.208 25.104l-23.248 134.688c-2.64 15.44-17.328 25.744-32.928 23.168-15.536-2.64-25.952-17.296-23.28-32.72l20.672-120.048L40.624 431.536c-7.776-7.568-10.592-18.816-7.216-29.12 3.328-10.256 12.288-17.728 23.008-19.296l297.104-42.96 132.88-267.728c4.816-9.712 14.752-15.808 25.6-15.808 10.848 0 20.752 6.096 25.568 15.808l132.912 267.728 297.072 42.96c10.8 1.552 19.696 9.024 23.04 19.328 3.344 10.272 0.528 21.52-7.2 29.088L768.416 639.888l50.72 294.336c1.824 10.672-2.512 21.408-11.312 27.728s-20.464 7.152-30.016 2.176l-265.792-138.992-265.76 138.992C242.032 966.336 237.488 967.344 233.008 967.344L233.008 967.344z" p-id="589" fill="#61569B"></path></svg>